<mxfile host="Electron" modified="2023-11-05T10:01:19.693Z" agent="Mozilla/5.0 (Windows NT 10.0; Win64; x64) AppleWebKit/537.36 (KHTML, like Gecko) draw.io/21.6.1 Chrome/112.0.5615.204 Electron/24.6.1 Safari/537.36" etag="D3UC_L7_Wnxj1Jdu6AI6" version="21.6.1" type="device">
  <diagram name="第 1 页" id="2vEL0SCBAmoh35pnt-mQ">
    <mxGraphModel dx="1863" dy="614" grid="1" gridSize="10" guides="1" tooltips="1" connect="1" arrows="1" fold="1" page="1" pageScale="1" pageWidth="827" pageHeight="1169" math="0" shadow="0">
      <root>
        <mxCell id="0" />
        <mxCell id="1" parent="0" />
        <mxCell id="Ihi564cpAbKIdLXiXjiB-11" style="edgeStyle=orthogonalEdgeStyle;rounded=0;orthogonalLoop=1;jettySize=auto;html=1;exitX=0.5;exitY=0;exitDx=0;exitDy=0;entryX=0.5;entryY=1;entryDx=0;entryDy=0;" edge="1" parent="1" source="Ihi564cpAbKIdLXiXjiB-1" target="Ihi564cpAbKIdLXiXjiB-4">
          <mxGeometry relative="1" as="geometry" />
        </mxCell>
        <mxCell id="Ihi564cpAbKIdLXiXjiB-1" value="数据" style="rounded=0;whiteSpace=wrap;html=1;" vertex="1" parent="1">
          <mxGeometry x="520" y="560" width="120" height="60" as="geometry" />
        </mxCell>
        <mxCell id="Ihi564cpAbKIdLXiXjiB-14" style="edgeStyle=orthogonalEdgeStyle;rounded=0;orthogonalLoop=1;jettySize=auto;html=1;exitX=1;exitY=0.25;exitDx=0;exitDy=0;entryX=0;entryY=0.25;entryDx=0;entryDy=0;" edge="1" parent="1" source="Ihi564cpAbKIdLXiXjiB-2" target="Ihi564cpAbKIdLXiXjiB-4">
          <mxGeometry relative="1" as="geometry" />
        </mxCell>
        <mxCell id="Ihi564cpAbKIdLXiXjiB-2" value="信息交互模块" style="rounded=1;whiteSpace=wrap;html=1;" vertex="1" parent="1">
          <mxGeometry x="270" y="460" width="120" height="60" as="geometry" />
        </mxCell>
        <mxCell id="Ihi564cpAbKIdLXiXjiB-3" value="数据包截获模块" style="rounded=1;whiteSpace=wrap;html=1;" vertex="1" parent="1">
          <mxGeometry x="-540" y="20" width="120" height="60" as="geometry" />
        </mxCell>
        <mxCell id="Ihi564cpAbKIdLXiXjiB-13" style="edgeStyle=orthogonalEdgeStyle;rounded=0;orthogonalLoop=1;jettySize=auto;html=1;exitX=0;exitY=0.75;exitDx=0;exitDy=0;entryX=1;entryY=0.75;entryDx=0;entryDy=0;" edge="1" parent="1" source="Ihi564cpAbKIdLXiXjiB-4" target="Ihi564cpAbKIdLXiXjiB-2">
          <mxGeometry relative="1" as="geometry" />
        </mxCell>
        <mxCell id="Ihi564cpAbKIdLXiXjiB-4" value="过滤模块" style="rounded=1;whiteSpace=wrap;html=1;" vertex="1" parent="1">
          <mxGeometry x="520" y="460" width="120" height="60" as="geometry" />
        </mxCell>
        <mxCell id="Ihi564cpAbKIdLXiXjiB-10" style="edgeStyle=orthogonalEdgeStyle;rounded=0;orthogonalLoop=1;jettySize=auto;html=1;exitX=0.5;exitY=0;exitDx=0;exitDy=0;entryX=0.5;entryY=1;entryDx=0;entryDy=0;" edge="1" parent="1" source="Ihi564cpAbKIdLXiXjiB-5" target="Ihi564cpAbKIdLXiXjiB-1">
          <mxGeometry relative="1" as="geometry" />
        </mxCell>
        <mxCell id="Ihi564cpAbKIdLXiXjiB-5" value="数据包处理模块" style="rounded=1;whiteSpace=wrap;html=1;" vertex="1" parent="1">
          <mxGeometry x="520" y="660" width="120" height="60" as="geometry" />
        </mxCell>
        <mxCell id="Ihi564cpAbKIdLXiXjiB-8" style="edgeStyle=orthogonalEdgeStyle;rounded=0;orthogonalLoop=1;jettySize=auto;html=1;exitX=1;exitY=0.5;exitDx=0;exitDy=0;entryX=0;entryY=0.5;entryDx=0;entryDy=0;" edge="1" parent="1" source="Ihi564cpAbKIdLXiXjiB-6" target="Ihi564cpAbKIdLXiXjiB-5">
          <mxGeometry relative="1" as="geometry" />
        </mxCell>
        <mxCell id="Ihi564cpAbKIdLXiXjiB-6" value="内核" style="rounded=0;whiteSpace=wrap;html=1;" vertex="1" parent="1">
          <mxGeometry y="660" width="136" height="60" as="geometry" />
        </mxCell>
        <mxCell id="Ihi564cpAbKIdLXiXjiB-7" value="应用层" style="rounded=0;whiteSpace=wrap;html=1;" vertex="1" parent="1">
          <mxGeometry y="460" width="136" height="60" as="geometry" />
        </mxCell>
        <mxCell id="Ihi564cpAbKIdLXiXjiB-9" value="数据包原始数据" style="text;html=1;align=center;verticalAlign=middle;resizable=0;points=[];autosize=1;strokeColor=none;fillColor=none;" vertex="1" parent="1">
          <mxGeometry x="285" y="650" width="110" height="30" as="geometry" />
        </mxCell>
        <mxCell id="Ihi564cpAbKIdLXiXjiB-15" value="过滤选项" style="text;html=1;align=center;verticalAlign=middle;resizable=0;points=[];autosize=1;strokeColor=none;fillColor=none;" vertex="1" parent="1">
          <mxGeometry x="414" y="440" width="70" height="30" as="geometry" />
        </mxCell>
        <mxCell id="Ihi564cpAbKIdLXiXjiB-16" value="解析后的数据" style="text;html=1;align=center;verticalAlign=middle;resizable=0;points=[];autosize=1;strokeColor=none;fillColor=none;" vertex="1" parent="1">
          <mxGeometry x="399" y="520" width="100" height="30" as="geometry" />
        </mxCell>
        <mxCell id="Ihi564cpAbKIdLXiXjiB-17" value="经过解析的数据" style="text;html=1;align=center;verticalAlign=middle;resizable=0;points=[];autosize=1;strokeColor=none;fillColor=none;" vertex="1" parent="1">
          <mxGeometry x="580" y="630" width="110" height="30" as="geometry" />
        </mxCell>
        <mxCell id="Ihi564cpAbKIdLXiXjiB-18" value="经过过滤的数据" style="text;html=1;align=center;verticalAlign=middle;resizable=0;points=[];autosize=1;strokeColor=none;fillColor=none;" vertex="1" parent="1">
          <mxGeometry x="580" y="530" width="110" height="30" as="geometry" />
        </mxCell>
        <mxCell id="Ihi564cpAbKIdLXiXjiB-20" value="" style="html=1;shadow=0;dashed=0;align=center;verticalAlign=middle;shape=mxgraph.arrows2.twoWayArrow;dy=0.6;dx=35;" vertex="1" parent="1">
          <mxGeometry x="150" y="470" width="100" height="40" as="geometry" />
        </mxCell>
      </root>
    </mxGraphModel>
  </diagram>
</mxfile>
